<?xml version="1.0" encoding="UTF-8" standalone="no"?>
<!DOCTYPE svg PUBLIC "-//W3C//DTD SVG 1.1//EN"
 "http://www.w3.org/Graphics/SVG/1.1/DTD/svg11.dtd">
<!-- Generated by graphviz version 2.38.0 (20140413.2041)
 -->
<!-- Title: controllers_diagram Pages: 1 -->
<svg width="605pt" height="644pt"
 viewBox="0.00 0.00 604.50 644.00" xmlns="http://www.w3.org/2000/svg" xmlns:xlink="http://www.w3.org/1999/xlink">
<g id="graph0" class="graph" transform="scale(1 1) rotate(0) translate(244.5 384)">
<title>controllers_diagram</title>
<polygon fill="none" stroke="none" points="-244.5,260 -244.5,-384 360,-384 360,260 -244.5,260"/>
<!-- _diagram_info -->
<g id="node1" class="node"><title>_diagram_info</title>
<text text-anchor="start" x="-136" y="-207.6" font-family="Times,serif" font-size="13.00">Controllers diagram</text>
<text text-anchor="start" x="-136" y="-193.6" font-family="Times,serif" font-size="13.00">Date: Oct 22 2015 &#45; 21:59</text>
<text text-anchor="start" x="-136" y="-179.6" font-family="Times,serif" font-size="13.00">Migration version: 20151015162426</text>
<text text-anchor="start" x="-136" y="-165.6" font-family="Times,serif" font-size="13.00">Generated by RailRoady 1.4.0</text>
<text text-anchor="start" x="-136" y="-151.6" font-family="Times,serif" font-size="13.00">http://railroady.prestonlee.com</text>
</g>
<!-- HomeController -->
<g id="node2" class="node"><title>HomeController</title>
<path fill="none" stroke="black" d="M-116,-256.5C-116,-256.5 -34,-256.5 -34,-256.5 -28,-256.5 -22,-262.5 -22,-268.5 -22,-268.5 -22,-367.5 -22,-367.5 -22,-373.5 -28,-379.5 -34,-379.5 -34,-379.5 -116,-379.5 -116,-379.5 -122,-379.5 -128,-373.5 -128,-367.5 -128,-367.5 -128,-268.5 -128,-268.5 -128,-262.5 -122,-256.5 -116,-256.5"/>
<text text-anchor="middle" x="-75" y="-364.3" font-family="Times,serif" font-size="14.00">HomeController</text>
<polyline fill="none" stroke="black" points="-128,-356.5 -22,-356.5 "/>
<text text-anchor="start" x="-120" y="-341.3" font-family="Times,serif" font-size="14.00">index</text>
<text text-anchor="start" x="-120" y="-326.3" font-family="Times,serif" font-size="14.00">stream</text>
<polyline fill="none" stroke="black" points="-128,-318.5 -22,-318.5 "/>
<polyline fill="none" stroke="black" points="-128,-294.5 -22,-294.5 "/>
<text text-anchor="start" x="-120" y="-279.3" font-family="Times,serif" font-size="14.00">_layout</text>
<text text-anchor="start" x="-120" y="-264.3" font-family="Times,serif" font-size="14.00">content_sorted</text>
</g>
<!-- TagsController -->
<g id="node3" class="node"><title>TagsController</title>
<path fill="none" stroke="black" d="M236,224C236,224 310,224 310,224 316,224 322,218 322,212 322,212 322,68 322,68 322,62 316,56 310,56 310,56 236,56 236,56 230,56 224,62 224,68 224,68 224,212 224,212 224,218 230,224 236,224"/>
<text text-anchor="middle" x="273" y="71.2" font-family="Times,serif" font-size="14.00">TagsController</text>
<polyline fill="none" stroke="black" points="224,79 322,79 "/>
<text text-anchor="start" x="232" y="94.2" font-family="Times,serif" font-size="14.00">destroy</text>
<text text-anchor="start" x="232" y="109.2" font-family="Times,serif" font-size="14.00">index</text>
<text text-anchor="start" x="232" y="124.2" font-family="Times,serif" font-size="14.00">show</text>
<polyline fill="none" stroke="black" points="224,132 322,132 "/>
<polyline fill="none" stroke="black" points="224,156 322,156 "/>
<text text-anchor="start" x="232" y="171.2" font-family="Times,serif" font-size="14.00">_layout</text>
<text text-anchor="start" x="232" y="186.2" font-family="Times,serif" font-size="14.00">correct_user</text>
<text text-anchor="start" x="232" y="201.2" font-family="Times,serif" font-size="14.00">find_tag</text>
<text text-anchor="start" x="232" y="216.2" font-family="Times,serif" font-size="14.00">tag_params</text>
</g>
<!-- ImagesController -->
<g id="node4" class="node"><title>ImagesController</title>
<path fill="none" stroke="black" d="M172,-160.5C172,-160.5 260,-160.5 260,-160.5 266,-160.5 272,-166.5 272,-172.5 272,-172.5 272,-331.5 272,-331.5 272,-337.5 266,-343.5 260,-343.5 260,-343.5 172,-343.5 172,-343.5 166,-343.5 160,-337.5 160,-331.5 160,-331.5 160,-172.5 160,-172.5 160,-166.5 166,-160.5 172,-160.5"/>
<text text-anchor="middle" x="216" y="-328.3" font-family="Times,serif" font-size="14.00">ImagesController</text>
<polyline fill="none" stroke="black" points="160,-320.5 272,-320.5 "/>
<text text-anchor="start" x="168" y="-305.3" font-family="Times,serif" font-size="14.00">destroy</text>
<text text-anchor="start" x="168" y="-290.3" font-family="Times,serif" font-size="14.00">edit</text>
<text text-anchor="start" x="168" y="-275.3" font-family="Times,serif" font-size="14.00">show</text>
<text text-anchor="start" x="168" y="-260.3" font-family="Times,serif" font-size="14.00">update</text>
<polyline fill="none" stroke="black" points="160,-252.5 272,-252.5 "/>
<polyline fill="none" stroke="black" points="160,-228.5 272,-228.5 "/>
<text text-anchor="start" x="168" y="-213.3" font-family="Times,serif" font-size="14.00">_layout</text>
<text text-anchor="start" x="168" y="-198.3" font-family="Times,serif" font-size="14.00">correct_user</text>
<text text-anchor="start" x="168" y="-183.3" font-family="Times,serif" font-size="14.00">find_image</text>
<text text-anchor="start" x="168" y="-168.3" font-family="Times,serif" font-size="14.00">image_params</text>
</g>
<!-- MessagesController -->
<g id="node5" class="node"><title>MessagesController</title>
<path fill="none" stroke="black" d="M-228.5,239.5C-228.5,239.5 -127.5,239.5 -127.5,239.5 -121.5,239.5 -115.5,233.5 -115.5,227.5 -115.5,227.5 -115.5,128.5 -115.5,128.5 -115.5,122.5 -121.5,116.5 -127.5,116.5 -127.5,116.5 -228.5,116.5 -228.5,116.5 -234.5,116.5 -240.5,122.5 -240.5,128.5 -240.5,128.5 -240.5,227.5 -240.5,227.5 -240.5,233.5 -234.5,239.5 -228.5,239.5"/>
<text text-anchor="middle" x="-178" y="131.7" font-family="Times,serif" font-size="14.00">MessagesController</text>
<polyline fill="none" stroke="black" points="-240.5,139.5 -115.5,139.5 "/>
<text text-anchor="start" x="-232.5" y="154.7" font-family="Times,serif" font-size="14.00">create</text>
<text text-anchor="start" x="-232.5" y="169.7" font-family="Times,serif" font-size="14.00">new</text>
<polyline fill="none" stroke="black" points="-240.5,177.5 -115.5,177.5 "/>
<polyline fill="none" stroke="black" points="-240.5,201.5 -115.5,201.5 "/>
<text text-anchor="start" x="-232.5" y="216.7" font-family="Times,serif" font-size="14.00">_layout</text>
<text text-anchor="start" x="-232.5" y="231.7" font-family="Times,serif" font-size="14.00">message_params</text>
</g>
<!-- PostsController -->
<g id="node6" class="node"><title>PostsController</title>
<path fill="none" stroke="black" d="M108.5,95C108.5,95 185.5,95 185.5,95 191.5,95 197.5,89 197.5,83 197.5,83 197.5,-121 197.5,-121 197.5,-127 191.5,-133 185.5,-133 185.5,-133 108.5,-133 108.5,-133 102.5,-133 96.5,-127 96.5,-121 96.5,-121 96.5,83 96.5,83 96.5,89 102.5,95 108.5,95"/>
<text text-anchor="middle" x="147" y="-117.8" font-family="Times,serif" font-size="14.00">PostsController</text>
<polyline fill="none" stroke="black" points="96.5,-110 197.5,-110 "/>
<text text-anchor="start" x="104.5" y="-94.8" font-family="Times,serif" font-size="14.00">create</text>
<text text-anchor="start" x="104.5" y="-79.8" font-family="Times,serif" font-size="14.00">destroy</text>
<text text-anchor="start" x="104.5" y="-64.8" font-family="Times,serif" font-size="14.00">edit</text>
<text text-anchor="start" x="104.5" y="-49.8" font-family="Times,serif" font-size="14.00">index</text>
<text text-anchor="start" x="104.5" y="-34.8" font-family="Times,serif" font-size="14.00">new</text>
<text text-anchor="start" x="104.5" y="-19.8" font-family="Times,serif" font-size="14.00">show</text>
<text text-anchor="start" x="104.5" y="-4.8" font-family="Times,serif" font-size="14.00">update</text>
<polyline fill="none" stroke="black" points="96.5,3 197.5,3 "/>
<polyline fill="none" stroke="black" points="96.5,27 197.5,27 "/>
<text text-anchor="start" x="104.5" y="42.2" font-family="Times,serif" font-size="14.00">_layout</text>
<text text-anchor="start" x="104.5" y="57.2" font-family="Times,serif" font-size="14.00">correct_user</text>
<text text-anchor="start" x="104.5" y="72.2" font-family="Times,serif" font-size="14.00">find_post</text>
<text text-anchor="start" x="104.5" y="87.2" font-family="Times,serif" font-size="14.00">post_params</text>
</g>
<!-- SessionsController -->
<g id="node7" class="node"><title>SessionsController</title>
<path fill="none" stroke="black" d="M28.5,-256.5C28.5,-256.5 123.5,-256.5 123.5,-256.5 129.5,-256.5 135.5,-262.5 135.5,-268.5 135.5,-268.5 135.5,-367.5 135.5,-367.5 135.5,-373.5 129.5,-379.5 123.5,-379.5 123.5,-379.5 28.5,-379.5 28.5,-379.5 22.5,-379.5 16.5,-373.5 16.5,-367.5 16.5,-367.5 16.5,-268.5 16.5,-268.5 16.5,-262.5 22.5,-256.5 28.5,-256.5"/>
<text text-anchor="middle" x="76" y="-364.3" font-family="Times,serif" font-size="14.00">SessionsController</text>
<polyline fill="none" stroke="black" points="16.5,-356.5 135.5,-356.5 "/>
<text text-anchor="start" x="24.5" y="-341.3" font-family="Times,serif" font-size="14.00">create</text>
<text text-anchor="start" x="24.5" y="-326.3" font-family="Times,serif" font-size="14.00">destroy</text>
<text text-anchor="start" x="24.5" y="-311.3" font-family="Times,serif" font-size="14.00">new</text>
<polyline fill="none" stroke="black" points="16.5,-303.5 135.5,-303.5 "/>
<polyline fill="none" stroke="black" points="16.5,-279.5 135.5,-279.5 "/>
<text text-anchor="start" x="24.5" y="-264.3" font-family="Times,serif" font-size="14.00">_layout</text>
</g>
<!-- ApplicationController -->
<g id="node8" class="node"><title>ApplicationController</title>
<path fill="none" stroke="black" d="M12,255.5C12,255.5 124,255.5 124,255.5 130,255.5 136,249.5 136,243.5 136,243.5 136,174.5 136,174.5 136,168.5 130,162.5 124,162.5 124,162.5 12,162.5 12,162.5 6,162.5 0,168.5 0,174.5 0,174.5 0,243.5 0,243.5 0,249.5 6,255.5 12,255.5"/>
<text text-anchor="middle" x="68" y="177.7" font-family="Times,serif" font-size="14.00">ApplicationController</text>
<polyline fill="none" stroke="black" points="0,185.5 136,185.5 "/>
<text text-anchor="start" x="8" y="200.7" font-family="Times,serif" font-size="14.00">logged_in_user</text>
<polyline fill="none" stroke="black" points="0,208.5 136,208.5 "/>
<polyline fill="none" stroke="black" points="0,232.5 136,232.5 "/>
<text text-anchor="start" x="8" y="247.7" font-family="Times,serif" font-size="14.00">_layout</text>
</g>
<!-- UsersController -->
<g id="node9" class="node"><title>UsersController</title>
<path fill="none" stroke="black" d="M-179.5,79.5C-179.5,79.5 -100.5,79.5 -100.5,79.5 -94.5,79.5 -88.5,73.5 -88.5,67.5 -88.5,67.5 -88.5,-91.5 -88.5,-91.5 -88.5,-97.5 -94.5,-103.5 -100.5,-103.5 -100.5,-103.5 -179.5,-103.5 -179.5,-103.5 -185.5,-103.5 -191.5,-97.5 -191.5,-91.5 -191.5,-91.5 -191.5,67.5 -191.5,67.5 -191.5,73.5 -185.5,79.5 -179.5,79.5"/>
<text text-anchor="middle" x="-140" y="-88.3" font-family="Times,serif" font-size="14.00">UsersController</text>
<polyline fill="none" stroke="black" points="-191.5,-80.5 -88.5,-80.5 "/>
<text text-anchor="start" x="-183.5" y="-65.3" font-family="Times,serif" font-size="14.00">create</text>
<text text-anchor="start" x="-183.5" y="-50.3" font-family="Times,serif" font-size="14.00">edit</text>
<text text-anchor="start" x="-183.5" y="-35.3" font-family="Times,serif" font-size="14.00">new</text>
<text text-anchor="start" x="-183.5" y="-20.3" font-family="Times,serif" font-size="14.00">show</text>
<text text-anchor="start" x="-183.5" y="-5.3" font-family="Times,serif" font-size="14.00">update</text>
<polyline fill="none" stroke="black" points="-191.5,2.5 -88.5,2.5 "/>
<polyline fill="none" stroke="black" points="-191.5,26.5 -88.5,26.5 "/>
<text text-anchor="start" x="-183.5" y="41.7" font-family="Times,serif" font-size="14.00">_layout</text>
<text text-anchor="start" x="-183.5" y="56.7" font-family="Times,serif" font-size="14.00">find_user</text>
<text text-anchor="start" x="-183.5" y="71.7" font-family="Times,serif" font-size="14.00">user_params</text>
</g>
<!-- GalleriesController -->
<g id="node10" class="node"><title>GalleriesController</title>
<path fill="none" stroke="black" d="M-52.5,127C-52.5,127 44.5,127 44.5,127 50.5,127 56.5,121 56.5,115 56.5,115 56.5,-89 56.5,-89 56.5,-95 50.5,-101 44.5,-101 44.5,-101 -52.5,-101 -52.5,-101 -58.5,-101 -64.5,-95 -64.5,-89 -64.5,-89 -64.5,115 -64.5,115 -64.5,121 -58.5,127 -52.5,127"/>
<text text-anchor="middle" x="-4" y="-85.8" font-family="Times,serif" font-size="14.00">GalleriesController</text>
<polyline fill="none" stroke="black" points="-64.5,-78 56.5,-78 "/>
<text text-anchor="start" x="-56.5" y="-62.8" font-family="Times,serif" font-size="14.00">create</text>
<text text-anchor="start" x="-56.5" y="-47.8" font-family="Times,serif" font-size="14.00">destroy</text>
<text text-anchor="start" x="-56.5" y="-32.8" font-family="Times,serif" font-size="14.00">edit</text>
<text text-anchor="start" x="-56.5" y="-17.8" font-family="Times,serif" font-size="14.00">index</text>
<text text-anchor="start" x="-56.5" y="-2.8" font-family="Times,serif" font-size="14.00">new</text>
<text text-anchor="start" x="-56.5" y="12.2" font-family="Times,serif" font-size="14.00">show</text>
<text text-anchor="start" x="-56.5" y="27.2" font-family="Times,serif" font-size="14.00">update</text>
<polyline fill="none" stroke="black" points="-64.5,35 56.5,35 "/>
<polyline fill="none" stroke="black" points="-64.5,59 56.5,59 "/>
<text text-anchor="start" x="-56.5" y="74.2" font-family="Times,serif" font-size="14.00">_layout</text>
<text text-anchor="start" x="-56.5" y="89.2" font-family="Times,serif" font-size="14.00">correct_user</text>
<text text-anchor="start" x="-56.5" y="104.2" font-family="Times,serif" font-size="14.00">find_gallery</text>
<text text-anchor="start" x="-56.5" y="119.2" font-family="Times,serif" font-size="14.00">gallery_params</text>
</g>
<!-- CommentsController -->
<g id="node11" class="node"><title>CommentsController</title>
<path fill="none" stroke="black" d="M236,15C236,15 344,15 344,15 350,15 356,9 356,3 356,3 356,-111 356,-111 356,-117 350,-123 344,-123 344,-123 236,-123 236,-123 230,-123 224,-117 224,-111 224,-111 224,3 224,3 224,9 230,15 236,15"/>
<text text-anchor="middle" x="290" y="-107.8" font-family="Times,serif" font-size="14.00">CommentsController</text>
<polyline fill="none" stroke="black" points="224,-100 356,-100 "/>
<text text-anchor="start" x="232" y="-84.8" font-family="Times,serif" font-size="14.00">create</text>
<text text-anchor="start" x="232" y="-69.8" font-family="Times,serif" font-size="14.00">destroy</text>
<polyline fill="none" stroke="black" points="224,-62 356,-62 "/>
<polyline fill="none" stroke="black" points="224,-38 356,-38 "/>
<text text-anchor="start" x="232" y="-22.8" font-family="Times,serif" font-size="14.00">_layout</text>
<text text-anchor="start" x="232" y="-7.8" font-family="Times,serif" font-size="14.00">comment_params</text>
<text text-anchor="start" x="232" y="7.2" font-family="Times,serif" font-size="14.00">correct_user</text>
</g>
</g>
</svg>
