<?xml version="1.0" encoding="UTF-8" standalone="no"?>
<!DOCTYPE svg PUBLIC "-//W3C//DTD SVG 1.1//EN"
 "http://www.w3.org/Graphics/SVG/1.1/DTD/svg11.dtd">
<!-- Generated by graphviz version 2.38.0 (20140413.2041)
 -->
<!-- Title: models_diagram Pages: 1 -->
<svg width="782pt" height="1190pt"
 viewBox="0.00 0.00 782.00 1190.00" xmlns="http://www.w3.org/2000/svg" xmlns:xlink="http://www.w3.org/1999/xlink">
<g id="graph0" class="graph" transform="scale(1 1) rotate(0) translate(4 1186)">
<title>models_diagram</title>
<polygon fill="none" stroke="none" points="-4,4 -4,-1186 778,-1186 778,4 -4,4"/>
<!-- _diagram_info -->
<g id="node1" class="node"><title>_diagram_info</title>
<text text-anchor="start" x="107.5" y="-1078.1" font-family="Times,serif" font-size="13.00">Models diagram</text>
<text text-anchor="start" x="107.5" y="-1064.1" font-family="Times,serif" font-size="13.00">Date: Oct 22 2015 &#45; 21:59</text>
<text text-anchor="start" x="107.5" y="-1050.1" font-family="Times,serif" font-size="13.00">Migration version: 20151015162426</text>
<text text-anchor="start" x="107.5" y="-1036.1" font-family="Times,serif" font-size="13.00">Generated by RailRoady 1.4.0</text>
<text text-anchor="start" x="107.5" y="-1022.1" font-family="Times,serif" font-size="13.00">http://railroady.prestonlee.com</text>
</g>
<!-- Experience -->
<g id="node2" class="node"><title>Experience</title>
<path fill="none" stroke="black" d="M12,-737.5C12,-737.5 119,-737.5 119,-737.5 125,-737.5 131,-743.5 131,-749.5 131,-749.5 131,-876.5 131,-876.5 131,-882.5 125,-888.5 119,-888.5 119,-888.5 12,-888.5 12,-888.5 6,-888.5 0,-882.5 0,-876.5 0,-876.5 0,-749.5 0,-749.5 0,-743.5 6,-737.5 12,-737.5"/>
<text text-anchor="middle" x="65.5" y="-873.3" font-family="Times,serif" font-size="14.00">Experience</text>
<polyline fill="none" stroke="black" points="0,-865.5 131,-865.5 "/>
<text text-anchor="start" x="8" y="-850.3" font-family="Times,serif" font-size="14.00">id :INTEGER</text>
<text text-anchor="start" x="8" y="-835.3" font-family="Times,serif" font-size="14.00">start :datetime</text>
<text text-anchor="start" x="8" y="-820.3" font-family="Times,serif" font-size="14.00">end :datetime</text>
<text text-anchor="start" x="8" y="-805.3" font-family="Times,serif" font-size="14.00">name :varchar</text>
<text text-anchor="start" x="8" y="-790.3" font-family="Times,serif" font-size="14.00">body :text</text>
<text text-anchor="start" x="8" y="-775.3" font-family="Times,serif" font-size="14.00">user_id :integer</text>
<text text-anchor="start" x="8" y="-760.3" font-family="Times,serif" font-size="14.00">created_at :datetime</text>
<text text-anchor="start" x="8" y="-745.3" font-family="Times,serif" font-size="14.00">updated_at :datetime</text>
</g>
<!-- Tagging -->
<g id="node3" class="node"><title>Tagging</title>
<path fill="none" stroke="black" d="M561,-8C561,-8 668,-8 668,-8 674,-8 680,-14 680,-20 680,-20 680,-117 680,-117 680,-123 674,-129 668,-129 668,-129 561,-129 561,-129 555,-129 549,-123 549,-117 549,-117 549,-20 549,-20 549,-14 555,-8 561,-8"/>
<text text-anchor="middle" x="614.5" y="-113.8" font-family="Times,serif" font-size="14.00">Tagging</text>
<polyline fill="none" stroke="black" points="549,-106 680,-106 "/>
<text text-anchor="start" x="557" y="-90.8" font-family="Times,serif" font-size="14.00">id :INTEGER</text>
<text text-anchor="start" x="557" y="-75.8" font-family="Times,serif" font-size="14.00">post_id :integer</text>
<text text-anchor="start" x="557" y="-60.8" font-family="Times,serif" font-size="14.00">tag_id :integer</text>
<text text-anchor="start" x="557" y="-45.8" font-family="Times,serif" font-size="14.00">image_id :integer</text>
<text text-anchor="start" x="557" y="-30.8" font-family="Times,serif" font-size="14.00">created_at :datetime</text>
<text text-anchor="start" x="557" y="-15.8" font-family="Times,serif" font-size="14.00">updated_at :datetime</text>
</g>
<!-- Skill -->
<g id="node4" class="node"><title>Skill</title>
<path fill="none" stroke="black" d="M161,-745C161,-745 276,-745 276,-745 282,-745 288,-751 288,-757 288,-757 288,-869 288,-869 288,-875 282,-881 276,-881 276,-881 161,-881 161,-881 155,-881 149,-875 149,-869 149,-869 149,-757 149,-757 149,-751 155,-745 161,-745"/>
<text text-anchor="middle" x="218.5" y="-865.8" font-family="Times,serif" font-size="14.00">Skill</text>
<polyline fill="none" stroke="black" points="149,-858 288,-858 "/>
<text text-anchor="start" x="157" y="-842.8" font-family="Times,serif" font-size="14.00">id :INTEGER</text>
<text text-anchor="start" x="157" y="-827.8" font-family="Times,serif" font-size="14.00">skill :varchar</text>
<text text-anchor="start" x="157" y="-812.8" font-family="Times,serif" font-size="14.00">in_love_index :integer</text>
<text text-anchor="start" x="157" y="-797.8" font-family="Times,serif" font-size="14.00">user_id :integer</text>
<text text-anchor="start" x="157" y="-782.8" font-family="Times,serif" font-size="14.00">created_at :datetime</text>
<text text-anchor="start" x="157" y="-767.8" font-family="Times,serif" font-size="14.00">updated_at :datetime</text>
<text text-anchor="start" x="157" y="-752.8" font-family="Times,serif" font-size="14.00">skill_index :integer</text>
</g>
<!-- User -->
<g id="node5" class="node"><title>User</title>
<path fill="none" stroke="black" d="M343.5,-925.5C343.5,-925.5 493.5,-925.5 493.5,-925.5 499.5,-925.5 505.5,-931.5 505.5,-937.5 505.5,-937.5 505.5,-1169.5 505.5,-1169.5 505.5,-1175.5 499.5,-1181.5 493.5,-1181.5 493.5,-1181.5 343.5,-1181.5 343.5,-1181.5 337.5,-1181.5 331.5,-1175.5 331.5,-1169.5 331.5,-1169.5 331.5,-937.5 331.5,-937.5 331.5,-931.5 337.5,-925.5 343.5,-925.5"/>
<text text-anchor="middle" x="418.5" y="-1166.3" font-family="Times,serif" font-size="14.00">User</text>
<polyline fill="none" stroke="black" points="331.5,-1158.5 505.5,-1158.5 "/>
<text text-anchor="start" x="339.5" y="-1143.3" font-family="Times,serif" font-size="14.00">id :INTEGER</text>
<text text-anchor="start" x="339.5" y="-1128.3" font-family="Times,serif" font-size="14.00">name :varchar</text>
<text text-anchor="start" x="339.5" y="-1113.3" font-family="Times,serif" font-size="14.00">email :varchar</text>
<text text-anchor="start" x="339.5" y="-1098.3" font-family="Times,serif" font-size="14.00">password_digest :varchar</text>
<text text-anchor="start" x="339.5" y="-1083.3" font-family="Times,serif" font-size="14.00">admin :boolean</text>
<text text-anchor="start" x="339.5" y="-1068.3" font-family="Times,serif" font-size="14.00">created_at :datetime</text>
<text text-anchor="start" x="339.5" y="-1053.3" font-family="Times,serif" font-size="14.00">updated_at :datetime</text>
<text text-anchor="start" x="339.5" y="-1038.3" font-family="Times,serif" font-size="14.00">remember_digest :varchar</text>
<text text-anchor="start" x="339.5" y="-1023.3" font-family="Times,serif" font-size="14.00">avatar_file_name :varchar</text>
<text text-anchor="start" x="339.5" y="-1008.3" font-family="Times,serif" font-size="14.00">avatar_content_type :varchar</text>
<text text-anchor="start" x="339.5" y="-993.3" font-family="Times,serif" font-size="14.00">avatar_file_size :integer</text>
<text text-anchor="start" x="339.5" y="-978.3" font-family="Times,serif" font-size="14.00">avatar_updated_at :datetime</text>
<text text-anchor="start" x="339.5" y="-963.3" font-family="Times,serif" font-size="14.00">real_name :varchar</text>
<text text-anchor="start" x="339.5" y="-948.3" font-family="Times,serif" font-size="14.00">birth_date :datetime</text>
<text text-anchor="start" x="339.5" y="-933.3" font-family="Times,serif" font-size="14.00">phone :varchar</text>
</g>
<!-- User&#45;&gt;Experience -->
<g id="edge4" class="edge"><title>User&#45;&gt;Experience</title>
<path fill="none" stroke="#710bd6" d="M324.777,-926.46C324.022,-925.965 323.263,-925.478 322.5,-925 255.005,-882.7 215.666,-924.69 140.723,-888.956"/>
<ellipse fill="none" stroke="#710bd6" cx="328.186" cy="-928.836" rx="4.00002" ry="4.00002"/>
<polygon fill="#710bd6" stroke="#710bd6" points="140.31,-888.746 133.447,-880.194 135.856,-886.474 131.402,-884.202 131.402,-884.202 131.402,-884.202 135.856,-886.474 129.358,-888.211 140.31,-888.746 140.31,-888.746"/>
</g>
<!-- User&#45;&gt;Skill -->
<g id="edge2" class="edge"><title>User&#45;&gt;Skill</title>
<path fill="none" stroke="#387240" d="M326.094,-929.302C324.894,-927.856 323.695,-926.422 322.5,-925 312.367,-912.948 301.313,-900.489 290.315,-888.466"/>
<ellipse fill="none" stroke="#387240" cx="328.828" cy="-932.621" rx="4.00002" ry="4.00002"/>
<polygon fill="#387240" stroke="#387240" points="290.256,-888.401 286.795,-877.996 286.87,-884.722 283.484,-881.043 283.484,-881.043 283.484,-881.043 286.87,-884.722 280.173,-884.091 290.256,-888.401 290.256,-888.401"/>
</g>
<!-- SimpleUserInfo -->
<g id="node8" class="node"><title>SimpleUserInfo</title>
<path fill="none" stroke="black" d="M318,-760C318,-760 425,-760 425,-760 431,-760 437,-766 437,-772 437,-772 437,-854 437,-854 437,-860 431,-866 425,-866 425,-866 318,-866 318,-866 312,-866 306,-860 306,-854 306,-854 306,-772 306,-772 306,-766 312,-760 318,-760"/>
<text text-anchor="middle" x="371.5" y="-850.8" font-family="Times,serif" font-size="14.00">SimpleUserInfo</text>
<polyline fill="none" stroke="black" points="306,-843 437,-843 "/>
<text text-anchor="start" x="314" y="-827.8" font-family="Times,serif" font-size="14.00">id :INTEGER</text>
<text text-anchor="start" x="314" y="-812.8" font-family="Times,serif" font-size="14.00">info :varchar</text>
<text text-anchor="start" x="314" y="-797.8" font-family="Times,serif" font-size="14.00">user_id :integer</text>
<text text-anchor="start" x="314" y="-782.8" font-family="Times,serif" font-size="14.00">created_at :datetime</text>
<text text-anchor="start" x="314" y="-767.8" font-family="Times,serif" font-size="14.00">updated_at :datetime</text>
</g>
<!-- User&#45;&gt;SimpleUserInfo -->
<g id="edge1" class="edge"><title>User&#45;&gt;SimpleUserInfo</title>
<path fill="none" stroke="#1e91cf" d="M391.784,-916.929C388.988,-902.741 386.254,-888.867 383.744,-876.131"/>
<ellipse fill="none" stroke="#1e91cf" cx="392.644" cy="-921.295" rx="4.00001" ry="4.00001"/>
<polygon fill="#1e91cf" stroke="#1e91cf" points="383.716,-875.988 386.197,-865.306 382.749,-871.082 381.782,-866.176 381.782,-866.176 381.782,-866.176 382.749,-871.082 377.367,-867.046 383.716,-875.988 383.716,-875.988"/>
</g>
<!-- Post -->
<g id="node10" class="node"><title>Post</title>
<path fill="none" stroke="black" d="M426,-173.5C426,-173.5 533,-173.5 533,-173.5 539,-173.5 545,-179.5 545,-185.5 545,-185.5 545,-297.5 545,-297.5 545,-303.5 539,-309.5 533,-309.5 533,-309.5 426,-309.5 426,-309.5 420,-309.5 414,-303.5 414,-297.5 414,-297.5 414,-185.5 414,-185.5 414,-179.5 420,-173.5 426,-173.5"/>
<text text-anchor="middle" x="479.5" y="-294.3" font-family="Times,serif" font-size="14.00">Post</text>
<polyline fill="none" stroke="black" points="414,-286.5 545,-286.5 "/>
<text text-anchor="start" x="422" y="-271.3" font-family="Times,serif" font-size="14.00">id :INTEGER</text>
<text text-anchor="start" x="422" y="-256.3" font-family="Times,serif" font-size="14.00">title :varchar</text>
<text text-anchor="start" x="422" y="-241.3" font-family="Times,serif" font-size="14.00">content :text</text>
<text text-anchor="start" x="422" y="-226.3" font-family="Times,serif" font-size="14.00">created_at :datetime</text>
<text text-anchor="start" x="422" y="-211.3" font-family="Times,serif" font-size="14.00">updated_at :datetime</text>
<text text-anchor="start" x="422" y="-196.3" font-family="Times,serif" font-size="14.00">user_id :integer</text>
<text text-anchor="start" x="422" y="-181.3" font-family="Times,serif" font-size="14.00">public :boolean</text>
</g>
<!-- User&#45;&gt;Post -->
<g id="edge5" class="edge"><title>User&#45;&gt;Post</title>
<path fill="none" stroke="#176f5f" d="M442.008,-917.423C443.309,-907.82 444.494,-898.273 445.5,-889 467.711,-684.338 475.544,-441.591 478.203,-320.024"/>
<ellipse fill="none" stroke="#176f5f" cx="441.438" cy="-921.535" rx="4.00001" ry="4.00001"/>
<polygon fill="#176f5f" stroke="#176f5f" points="478.21,-319.705 482.922,-309.803 478.316,-314.706 478.423,-309.707 478.423,-309.707 478.423,-309.707 478.316,-314.706 473.924,-309.611 478.21,-319.705 478.21,-319.705"/>
</g>
<!-- Education -->
<g id="node11" class="node"><title>Education</title>
<path fill="none" stroke="black" d="M506,-737.5C506,-737.5 613,-737.5 613,-737.5 619,-737.5 625,-743.5 625,-749.5 625,-749.5 625,-876.5 625,-876.5 625,-882.5 619,-888.5 613,-888.5 613,-888.5 506,-888.5 506,-888.5 500,-888.5 494,-882.5 494,-876.5 494,-876.5 494,-749.5 494,-749.5 494,-743.5 500,-737.5 506,-737.5"/>
<text text-anchor="middle" x="559.5" y="-873.3" font-family="Times,serif" font-size="14.00">Education</text>
<polyline fill="none" stroke="black" points="494,-865.5 625,-865.5 "/>
<text text-anchor="start" x="502" y="-850.3" font-family="Times,serif" font-size="14.00">id :INTEGER</text>
<text text-anchor="start" x="502" y="-835.3" font-family="Times,serif" font-size="14.00">start :date</text>
<text text-anchor="start" x="502" y="-820.3" font-family="Times,serif" font-size="14.00">end :date</text>
<text text-anchor="start" x="502" y="-805.3" font-family="Times,serif" font-size="14.00">name :varchar</text>
<text text-anchor="start" x="502" y="-790.3" font-family="Times,serif" font-size="14.00">body :text</text>
<text text-anchor="start" x="502" y="-775.3" font-family="Times,serif" font-size="14.00">user_id :integer</text>
<text text-anchor="start" x="502" y="-760.3" font-family="Times,serif" font-size="14.00">created_at :datetime</text>
<text text-anchor="start" x="502" y="-745.3" font-family="Times,serif" font-size="14.00">updated_at :datetime</text>
</g>
<!-- User&#45;&gt;Education -->
<g id="edge3" class="edge"><title>User&#45;&gt;Education</title>
<path fill="none" stroke="#88f09b" d="M497.909,-918.181C502.123,-911.052 506.295,-903.996 510.361,-897.117"/>
<ellipse fill="none" stroke="#88f09b" cx="495.783" cy="-921.777" rx="4.00002" ry="4.00002"/>
<polygon fill="#88f09b" stroke="#88f09b" points="510.363,-897.115 519.326,-890.797 512.907,-892.811 515.452,-888.507 515.452,-888.507 515.452,-888.507 512.907,-892.811 511.578,-886.217 510.363,-897.115 510.363,-897.115"/>
</g>
<!-- Gallery -->
<g id="node12" class="node"><title>Gallery</title>
<path fill="none" stroke="black" d="M655,-737.5C655,-737.5 762,-737.5 762,-737.5 768,-737.5 774,-743.5 774,-749.5 774,-749.5 774,-876.5 774,-876.5 774,-882.5 768,-888.5 762,-888.5 762,-888.5 655,-888.5 655,-888.5 649,-888.5 643,-882.5 643,-876.5 643,-876.5 643,-749.5 643,-749.5 643,-743.5 649,-737.5 655,-737.5"/>
<text text-anchor="middle" x="708.5" y="-873.3" font-family="Times,serif" font-size="14.00">Gallery</text>
<polyline fill="none" stroke="black" points="643,-865.5 774,-865.5 "/>
<text text-anchor="start" x="651" y="-850.3" font-family="Times,serif" font-size="14.00">id :INTEGER</text>
<text text-anchor="start" x="651" y="-835.3" font-family="Times,serif" font-size="14.00">name :varchar</text>
<text text-anchor="start" x="651" y="-820.3" font-family="Times,serif" font-size="14.00">description :text</text>
<text text-anchor="start" x="651" y="-805.3" font-family="Times,serif" font-size="14.00">cover :integer</text>
<text text-anchor="start" x="651" y="-790.3" font-family="Times,serif" font-size="14.00">created_at :datetime</text>
<text text-anchor="start" x="651" y="-775.3" font-family="Times,serif" font-size="14.00">updated_at :datetime</text>
<text text-anchor="start" x="651" y="-760.3" font-family="Times,serif" font-size="14.00">user_id :integer</text>
<text text-anchor="start" x="651" y="-745.3" font-family="Times,serif" font-size="14.00">public :boolean</text>
</g>
<!-- User&#45;&gt;Gallery -->
<g id="edge6" class="edge"><title>User&#45;&gt;Gallery</title>
<path fill="none" stroke="#95ab3e" d="M512.293,-926.566C513.025,-926.037 513.761,-925.515 514.5,-925 557.691,-894.914 583.826,-915.198 633.919,-888.636"/>
<ellipse fill="none" stroke="#95ab3e" cx="508.975" cy="-929.094" rx="4.00002" ry="4.00002"/>
<polygon fill="#95ab3e" stroke="#95ab3e" points="634.174,-888.491 645.09,-887.446 638.517,-886.014 642.861,-883.537 642.861,-883.537 642.861,-883.537 638.517,-886.014 640.632,-879.628 634.174,-888.491 634.174,-888.491"/>
</g>
<!-- Image -->
<g id="node6" class="node"><title>Image</title>
<path fill="none" stroke="black" d="M579,-474.5C579,-474.5 728,-474.5 728,-474.5 734,-474.5 740,-480.5 740,-486.5 740,-486.5 740,-688.5 740,-688.5 740,-694.5 734,-700.5 728,-700.5 728,-700.5 579,-700.5 579,-700.5 573,-700.5 567,-694.5 567,-688.5 567,-688.5 567,-486.5 567,-486.5 567,-480.5 573,-474.5 579,-474.5"/>
<text text-anchor="middle" x="653.5" y="-685.3" font-family="Times,serif" font-size="14.00">Image</text>
<polyline fill="none" stroke="black" points="567,-677.5 740,-677.5 "/>
<text text-anchor="start" x="575" y="-662.3" font-family="Times,serif" font-size="14.00">id :INTEGER</text>
<text text-anchor="start" x="575" y="-647.3" font-family="Times,serif" font-size="14.00">name :varchar</text>
<text text-anchor="start" x="575" y="-632.3" font-family="Times,serif" font-size="14.00">file_file_name :varchar</text>
<text text-anchor="start" x="575" y="-617.3" font-family="Times,serif" font-size="14.00">file_content_type :varchar</text>
<text text-anchor="start" x="575" y="-602.3" font-family="Times,serif" font-size="14.00">file_file_size :integer</text>
<text text-anchor="start" x="575" y="-587.3" font-family="Times,serif" font-size="14.00">file_updated_at :datetime</text>
<text text-anchor="start" x="575" y="-572.3" font-family="Times,serif" font-size="14.00">file_meta :text</text>
<text text-anchor="start" x="575" y="-557.3" font-family="Times,serif" font-size="14.00">created_at :datetime</text>
<text text-anchor="start" x="575" y="-542.3" font-family="Times,serif" font-size="14.00">updated_at :datetime</text>
<text text-anchor="start" x="575" y="-527.3" font-family="Times,serif" font-size="14.00">gallery_id :integer</text>
<text text-anchor="start" x="575" y="-512.3" font-family="Times,serif" font-size="14.00">exif_date :datetime</text>
<text text-anchor="start" x="575" y="-497.3" font-family="Times,serif" font-size="14.00">exif_exposure_time :varchar</text>
<text text-anchor="start" x="575" y="-482.3" font-family="Times,serif" font-size="14.00">exif_f_number :float</text>
</g>
<!-- Image&#45;&gt;Tagging -->
<g id="edge7" class="edge"><title>Image&#45;&gt;Tagging</title>
<path fill="none" stroke="#0d9336" d="M644.421,-466.15C636.769,-364.703 626.084,-223.061 619.769,-139.354"/>
<ellipse fill="none" stroke="#0d9336" cx="644.737" cy="-470.33" rx="4" ry="4"/>
<polygon fill="#0d9336" stroke="#0d9336" points="619.755,-139.161 623.49,-128.851 619.379,-134.175 619.003,-129.189 619.003,-129.189 619.003,-129.189 619.379,-134.175 614.515,-129.528 619.755,-139.161 619.755,-139.161"/>
</g>
<!-- Tag -->
<g id="node9" class="node"><title>Tag</title>
<path fill="none" stroke="black" d="M506,-346.5C506,-346.5 613,-346.5 613,-346.5 619,-346.5 625,-352.5 625,-358.5 625,-358.5 625,-425.5 625,-425.5 625,-431.5 619,-437.5 613,-437.5 613,-437.5 506,-437.5 506,-437.5 500,-437.5 494,-431.5 494,-425.5 494,-425.5 494,-358.5 494,-358.5 494,-352.5 500,-346.5 506,-346.5"/>
<text text-anchor="middle" x="559.5" y="-422.3" font-family="Times,serif" font-size="14.00">Tag</text>
<polyline fill="none" stroke="black" points="494,-414.5 625,-414.5 "/>
<text text-anchor="start" x="502" y="-399.3" font-family="Times,serif" font-size="14.00">id :INTEGER</text>
<text text-anchor="start" x="502" y="-384.3" font-family="Times,serif" font-size="14.00">name :varchar</text>
<text text-anchor="start" x="502" y="-369.3" font-family="Times,serif" font-size="14.00">created_at :datetime</text>
<text text-anchor="start" x="502" y="-354.3" font-family="Times,serif" font-size="14.00">updated_at :datetime</text>
</g>
<!-- Image&#45;&gt;Tag -->
<g id="edge8" class="edge"><title>Image&#45;&gt;Tag</title>
<path fill="none" stroke="#233aba" d="M594.463,-464.972C591.492,-458.855 588.589,-452.879 585.806,-447.152"/>
<polygon fill="#233aba" stroke="#233aba" points="594.586,-465.226 594.908,-476.187 596.771,-469.723 598.956,-474.22 598.956,-474.22 598.956,-474.22 596.771,-469.723 603.004,-472.254 594.586,-465.226 594.586,-465.226"/>
<polygon fill="#233aba" stroke="#233aba" points="585.617,-446.763 585.295,-435.802 583.433,-442.265 581.248,-437.768 581.248,-437.768 581.248,-437.768 583.433,-442.265 577.2,-439.734 585.617,-446.763 585.617,-446.763"/>
</g>
<!-- Message -->
<g id="node7" class="node"><title>Message</title>
<polygon fill="none" stroke="black" points="524,-1030.5 524,-1076.5 589,-1076.5 589,-1030.5 524,-1030.5"/>
<text text-anchor="middle" x="556.5" y="-1061.3" font-family="Times,serif" font-size="14.00">Message</text>
<polyline fill="none" stroke="black" points="524,-1053.5 589,-1053.5 "/>
<text text-anchor="middle" x="556.5" y="-1038.3" font-family="Times,serif" font-size="14.00"> </text>
</g>
<!-- Tag&#45;&gt;Tagging -->
<g id="edge9" class="edge"><title>Tag&#45;&gt;Tagging</title>
<path fill="none" stroke="#3be1c8" d="M568.554,-338.075C577.845,-283.765 592.348,-198.986 602.571,-139.233"/>
<ellipse fill="none" stroke="#3be1c8" cx="567.822" cy="-342.354" rx="4.00001" ry="4.00001"/>
<polygon fill="#3be1c8" stroke="#3be1c8" points="602.614,-138.981 608.735,-129.883 603.457,-134.053 604.3,-129.124 604.3,-129.124 604.3,-129.124 603.457,-134.053 599.864,-128.365 602.614,-138.981 602.614,-138.981"/>
</g>
<!-- Tag&#45;&gt;Post -->
<g id="edge10" class="edge"><title>Tag&#45;&gt;Post</title>
<path fill="none" stroke="#5cd694" d="M530.698,-337.536C527.334,-331.292 523.855,-324.834 520.368,-318.36"/>
<polygon fill="#5cd694" stroke="#5cd694" points="530.755,-337.641 531.536,-348.579 533.126,-342.043 535.497,-346.445 535.497,-346.445 535.497,-346.445 533.126,-342.043 539.459,-344.311 530.755,-337.641 530.755,-337.641"/>
<polygon fill="#5cd694" stroke="#5cd694" points="520.359,-318.345 519.578,-307.407 517.988,-313.943 515.616,-309.541 515.616,-309.541 515.616,-309.541 517.988,-313.943 511.655,-311.675 520.359,-318.345 520.359,-318.345"/>
</g>
<!-- Post&#45;&gt;Tagging -->
<g id="edge11" class="edge"><title>Post&#45;&gt;Tagging</title>
<path fill="none" stroke="#4ff2b5" d="M537.634,-166.863C545.397,-157.031 553.328,-146.985 561.006,-137.259"/>
<ellipse fill="none" stroke="#4ff2b5" cx="534.947" cy="-170.268" rx="4.00002" ry="4.00002"/>
<polygon fill="#4ff2b5" stroke="#4ff2b5" points="561.191,-137.025 570.919,-131.965 564.289,-133.101 567.387,-129.176 567.387,-129.176 567.387,-129.176 564.289,-133.101 563.855,-126.388 561.191,-137.025 561.191,-137.025"/>
</g>
<!-- Comment -->
<g id="node13" class="node"><title>Comment</title>
<path fill="none" stroke="black" d="M412,-0.5C412,-0.5 519,-0.5 519,-0.5 525,-0.5 531,-6.5 531,-12.5 531,-12.5 531,-124.5 531,-124.5 531,-130.5 525,-136.5 519,-136.5 519,-136.5 412,-136.5 412,-136.5 406,-136.5 400,-130.5 400,-124.5 400,-124.5 400,-12.5 400,-12.5 400,-6.5 406,-0.5 412,-0.5"/>
<text text-anchor="middle" x="465.5" y="-121.3" font-family="Times,serif" font-size="14.00">Comment</text>
<polyline fill="none" stroke="black" points="400,-113.5 531,-113.5 "/>
<text text-anchor="start" x="408" y="-98.3" font-family="Times,serif" font-size="14.00">id :INTEGER</text>
<text text-anchor="start" x="408" y="-83.3" font-family="Times,serif" font-size="14.00">title :varchar</text>
<text text-anchor="start" x="408" y="-68.3" font-family="Times,serif" font-size="14.00">author :varchar</text>
<text text-anchor="start" x="408" y="-53.3" font-family="Times,serif" font-size="14.00">body :text</text>
<text text-anchor="start" x="408" y="-38.3" font-family="Times,serif" font-size="14.00">post_id :integer</text>
<text text-anchor="start" x="408" y="-23.3" font-family="Times,serif" font-size="14.00">created_at :datetime</text>
<text text-anchor="start" x="408" y="-8.3" font-family="Times,serif" font-size="14.00">updated_at :datetime</text>
</g>
<!-- Post&#45;&gt;Comment -->
<g id="edge12" class="edge"><title>Post&#45;&gt;Comment</title>
<path fill="none" stroke="#0f5a1c" d="M473.353,-165.423C472.852,-159.294 472.344,-153.093 471.841,-146.947"/>
<ellipse fill="none" stroke="#0f5a1c" cx="473.681" cy="-169.42" rx="4" ry="4"/>
<polygon fill="#0f5a1c" stroke="#0f5a1c" points="471.816,-146.647 475.485,-136.313 471.408,-141.663 471,-136.68 471,-136.68 471,-136.68 471.408,-141.663 466.515,-137.047 471.816,-146.647 471.816,-146.647"/>
</g>
<!-- Gallery&#45;&gt;Image -->
<g id="edge13" class="edge"><title>Gallery&#45;&gt;Image</title>
<path fill="none" stroke="#cda206" d="M688.183,-729.439C686.664,-723.265 685.113,-716.962 683.55,-710.614"/>
<ellipse fill="none" stroke="#cda206" cx="689.153" cy="-733.383" rx="4.00001" ry="4.00001"/>
<polygon fill="#cda206" stroke="#cda206" points="683.479,-710.324 685.459,-699.539 682.284,-705.469 681.09,-700.614 681.09,-700.614 681.09,-700.614 682.284,-705.469 676.72,-701.689 683.479,-710.324 683.479,-710.324"/>
</g>
</g>
</svg>
