<?xml version="1.0" encoding="UTF-8" standalone="no"?>
<!DOCTYPE svg PUBLIC "-//W3C//DTD SVG 1.1//EN"
 "http://www.w3.org/Graphics/SVG/1.1/DTD/svg11.dtd">
<!-- Generated by graphviz version 2.38.0 (20140413.2041)
 -->
<!-- Title: models_diagram Pages: 1 -->
<svg width="574pt" height="446pt"
 viewBox="0.00 0.00 574.09 446.00" xmlns="http://www.w3.org/2000/svg" xmlns:xlink="http://www.w3.org/1999/xlink">
<g id="graph0" class="graph" transform="scale(1 1) rotate(0) translate(4 442)">
<title>models_diagram</title>
<polygon fill="none" stroke="none" points="-4,4 -4,-442 570.092,-442 570.092,4 -4,4"/>
<!-- _diagram_info -->
<g id="node1" class="node"><title>_diagram_info</title>
<text text-anchor="start" x="55.0456" y="-423.6" font-family="Times,serif" font-size="13.00">Models diagram</text>
<text text-anchor="start" x="55.0456" y="-409.6" font-family="Times,serif" font-size="13.00">Date: Oct 22 2015 &#45; 21:59</text>
<text text-anchor="start" x="55.0456" y="-395.6" font-family="Times,serif" font-size="13.00">Migration version: 20151015162426</text>
<text text-anchor="start" x="55.0456" y="-381.6" font-family="Times,serif" font-size="13.00">Generated by RailRoady 1.4.0</text>
<text text-anchor="start" x="55.0456" y="-367.6" font-family="Times,serif" font-size="13.00">http://railroady.prestonlee.com</text>
</g>
<!-- Experience -->
<g id="node2" class="node"><title>Experience</title>
<ellipse fill="none" stroke="black" cx="50.0456" cy="-306" rx="50.0912" ry="18"/>
<text text-anchor="middle" x="50.0456" y="-302.3" font-family="Times,serif" font-size="14.00">Experience</text>
</g>
<!-- Tagging -->
<g id="node3" class="node"><title>Tagging</title>
<ellipse fill="none" stroke="black" cx="441.046" cy="-18" rx="40.0939" ry="18"/>
<text text-anchor="middle" x="441.046" y="-14.3" font-family="Times,serif" font-size="14.00">Tagging</text>
</g>
<!-- Skill -->
<g id="node4" class="node"><title>Skill</title>
<ellipse fill="none" stroke="black" cx="145.046" cy="-306" rx="27.0966" ry="18"/>
<text text-anchor="middle" x="145.046" y="-302.3" font-family="Times,serif" font-size="14.00">Skill</text>
</g>
<!-- User -->
<g id="node5" class="node"><title>User</title>
<ellipse fill="none" stroke="black" cx="306.046" cy="-399" rx="27.0966" ry="18"/>
<text text-anchor="middle" x="306.046" y="-395.3" font-family="Times,serif" font-size="14.00">User</text>
</g>
<!-- User&#45;&gt;Experience -->
<g id="edge4" class="edge"><title>User&#45;&gt;Experience</title>
<path fill="none" stroke="#46ef66" d="M289.163,-375.799C283.661,-369.879 277.127,-364.019 270.046,-360 206.277,-323.809 180.084,-342.159 109.046,-324 105.205,-323.018 101.235,-321.963 97.2547,-320.876"/>
<ellipse fill="none" stroke="#46ef66" cx="292.079" cy="-379.147" rx="4.00002" ry="4.00002"/>
<polygon fill="#46ef66" stroke="#46ef66" points="97.0398,-320.817 88.6131,-313.799 92.223,-319.475 87.4062,-318.134 87.4062,-318.134 87.4062,-318.134 92.223,-319.475 86.1992,-322.47 97.0398,-320.817 97.0398,-320.817"/>
</g>
<!-- User&#45;&gt;Skill -->
<g id="edge2" class="edge"><title>User&#45;&gt;Skill</title>
<path fill="none" stroke="#195771" d="M288.443,-376.229C282.99,-370.42 276.663,-364.511 270.046,-360 234.791,-335.964 220.131,-341.117 181.046,-324 179.435,-323.295 177.789,-322.562 176.131,-321.813"/>
<ellipse fill="none" stroke="#195771" cx="291.321" cy="-379.442" rx="4.00002" ry="4.00002"/>
<polygon fill="#195771" stroke="#195771" points="175.739,-321.633 168.539,-313.362 171.198,-319.541 166.656,-317.449 166.656,-317.449 166.656,-317.449 171.198,-319.541 164.773,-321.536 175.739,-321.633 175.739,-321.633"/>
</g>
<!-- SimpleUserInfo -->
<g id="node8" class="node"><title>SimpleUserInfo</title>
<ellipse fill="none" stroke="black" cx="258.046" cy="-306" rx="67.6881" ry="18"/>
<text text-anchor="middle" x="258.046" y="-302.3" font-family="Times,serif" font-size="14.00">SimpleUserInfo</text>
</g>
<!-- User&#45;&gt;SimpleUserInfo -->
<g id="edge1" class="edge"><title>User&#45;&gt;SimpleUserInfo</title>
<path fill="none" stroke="#5ac0d1" d="M293.601,-374.408C286.908,-361.719 278.64,-346.044 271.762,-333.004"/>
<ellipse fill="none" stroke="#5ac0d1" cx="295.598" cy="-378.193" rx="4.00002" ry="4.00002"/>
<polygon fill="#5ac0d1" stroke="#5ac0d1" points="271.707,-332.9 271.022,-321.955 269.374,-328.477 267.041,-324.055 267.041,-324.055 267.041,-324.055 269.374,-328.477 263.061,-326.154 271.707,-332.9 271.707,-332.9"/>
</g>
<!-- Post -->
<g id="node10" class="node"><title>Post</title>
<ellipse fill="none" stroke="black" cx="357.046" cy="-90" rx="27" ry="18"/>
<text text-anchor="middle" x="357.046" y="-86.3" font-family="Times,serif" font-size="14.00">Post</text>
</g>
<!-- User&#45;&gt;Post -->
<g id="edge5" class="edge"><title>User&#45;&gt;Post</title>
<path fill="none" stroke="#67ab9c" d="M317.317,-374.249C323.579,-359.998 330.918,-341.328 335.046,-324 352.403,-251.125 356.17,-162.362 356.919,-118.397"/>
<ellipse fill="none" stroke="#67ab9c" cx="315.617" cy="-378.028" rx="4.00002" ry="4.00002"/>
<polygon fill="#67ab9c" stroke="#67ab9c" points="356.921,-118.221 361.55,-108.281 356.986,-113.222 357.051,-108.222 357.051,-108.222 357.051,-108.222 356.986,-113.222 352.551,-108.164 356.921,-118.221 356.921,-118.221"/>
</g>
<!-- Education -->
<g id="node11" class="node"><title>Education</title>
<ellipse fill="none" stroke="black" cx="428.046" cy="-306" rx="46.2923" ry="18"/>
<text text-anchor="middle" x="428.046" y="-302.3" font-family="Times,serif" font-size="14.00">Education</text>
</g>
<!-- User&#45;&gt;Education -->
<g id="edge3" class="edge"><title>User&#45;&gt;Education</title>
<path fill="none" stroke="#4829f4" d="M324.44,-376.634C329.835,-370.924 335.934,-364.966 342.046,-360 357.633,-347.334 376.486,-335.393 392.562,-326.064"/>
<ellipse fill="none" stroke="#4829f4" cx="321.601" cy="-379.727" rx="4.00002" ry="4.00002"/>
<polygon fill="#4829f4" stroke="#4829f4" points="392.969,-325.833 403.886,-324.799 397.315,-323.36 401.661,-320.887 401.661,-320.887 401.661,-320.887 397.315,-323.36 399.436,-316.976 392.969,-325.833 392.969,-325.833"/>
</g>
<!-- Gallery -->
<g id="node12" class="node"><title>Gallery</title>
<ellipse fill="none" stroke="black" cx="529.046" cy="-306" rx="37.0935" ry="18"/>
<text text-anchor="middle" x="529.046" y="-302.3" font-family="Times,serif" font-size="14.00">Gallery</text>
</g>
<!-- User&#45;&gt;Gallery -->
<g id="edge6" class="edge"><title>User&#45;&gt;Gallery</title>
<path fill="none" stroke="#6b3849" d="M323.005,-375.933C328.51,-370.016 335.026,-364.124 342.046,-360 397.81,-327.237 421.295,-343.236 483.046,-324 485.789,-323.145 488.609,-322.221 491.437,-321.259"/>
<ellipse fill="none" stroke="#6b3849" cx="320.086" cy="-379.271" rx="4.00002" ry="4.00002"/>
<polygon fill="#6b3849" stroke="#6b3849" points="491.553,-321.218 502.48,-322.141 496.269,-319.557 500.985,-317.897 500.985,-317.897 500.985,-317.897 496.269,-319.557 499.491,-313.652 491.553,-321.218 491.553,-321.218"/>
</g>
<!-- Image -->
<g id="node6" class="node"><title>Image</title>
<ellipse fill="none" stroke="black" cx="464.046" cy="-234" rx="33.2948" ry="18"/>
<text text-anchor="middle" x="464.046" y="-230.3" font-family="Times,serif" font-size="14.00">Image</text>
</g>
<!-- Image&#45;&gt;Tagging -->
<g id="edge7" class="edge"><title>Image&#45;&gt;Tagging</title>
<path fill="none" stroke="#ccb596" d="M461.323,-207.67C456.965,-167.116 448.456,-87.9488 443.972,-46.2266"/>
<ellipse fill="none" stroke="#ccb596" cx="461.775" cy="-211.872" rx="4" ry="4"/>
<polygon fill="#ccb596" stroke="#ccb596" points="443.966,-46.1752 447.372,-35.7515 443.432,-41.2038 442.898,-36.2325 442.898,-36.2325 442.898,-36.2325 443.432,-41.2038 438.423,-36.7134 443.966,-46.1752 443.966,-46.1752"/>
</g>
<!-- Tag -->
<g id="node9" class="node"><title>Tag</title>
<ellipse fill="none" stroke="black" cx="409.046" cy="-162" rx="27" ry="18"/>
<text text-anchor="middle" x="409.046" y="-158.3" font-family="Times,serif" font-size="14.00">Tag</text>
</g>
<!-- Image&#45;&gt;Tag -->
<g id="edge8" class="edge"><title>Image&#45;&gt;Tag</title>
<path fill="none" stroke="#bb9ca0" d="M445.186,-208.996C439.452,-201.699 433.16,-193.691 427.456,-186.431"/>
<polygon fill="#bb9ca0" stroke="#bb9ca0" points="445.387,-209.253 448.027,-219.896 448.476,-213.184 451.565,-217.116 451.565,-217.116 451.565,-217.116 448.476,-213.184 455.104,-214.336 445.387,-209.253 445.387,-209.253"/>
<polygon fill="#bb9ca0" stroke="#bb9ca0" points="427.277,-186.203 424.637,-175.56 424.188,-182.272 421.099,-178.34 421.099,-178.34 421.099,-178.34 424.188,-182.272 417.56,-181.12 427.277,-186.203 427.277,-186.203"/>
</g>
<!-- Message -->
<g id="node7" class="node"><title>Message</title>
<polygon fill="none" stroke="black" points="416.546,-417 351.546,-417 351.546,-381 416.546,-381 416.546,-417"/>
<text text-anchor="middle" x="384.046" y="-395.3" font-family="Times,serif" font-size="14.00">Message</text>
</g>
<!-- Tag&#45;&gt;Tagging -->
<g id="edge9" class="edge"><title>Tag&#45;&gt;Tagging</title>
<path fill="none" stroke="#0ab973" d="M414.627,-136.233C420.296,-111.076 429.053,-72.218 434.913,-46.2145"/>
<ellipse fill="none" stroke="#0ab973" cx="413.721" cy="-140.251" rx="4.00001" ry="4.00001"/>
<polygon fill="#0ab973" stroke="#0ab973" points="434.956,-46.0232 441.544,-37.2571 436.055,-41.1455 437.154,-36.2678 437.154,-36.2678 437.154,-36.2678 436.055,-41.1455 432.764,-35.2785 434.956,-46.0232 434.956,-46.0232"/>
</g>
<!-- Tag&#45;&gt;Post -->
<g id="edge10" class="edge"><title>Tag&#45;&gt;Post</title>
<path fill="none" stroke="#d393fa" d="M391.469,-137.339C386.034,-130.023 380.049,-121.966 374.614,-114.65"/>
<polygon fill="#d393fa" stroke="#d393fa" points="391.542,-137.437 393.893,-148.148 394.523,-141.451 397.505,-145.465 397.505,-145.465 397.505,-145.465 394.523,-141.451 401.117,-142.781 391.542,-137.437 391.542,-137.437"/>
<polygon fill="#d393fa" stroke="#d393fa" points="374.517,-114.519 372.166,-103.808 371.535,-110.506 368.554,-106.492 368.554,-106.492 368.554,-106.492 371.535,-110.506 364.941,-109.175 374.517,-114.519 374.517,-114.519"/>
</g>
<!-- Post&#45;&gt;Tagging -->
<g id="edge11" class="edge"><title>Post&#45;&gt;Tagging</title>
<path fill="none" stroke="#c6cd7e" d="M379.583,-70.2192C390.49,-61.1298 403.645,-50.1667 414.982,-40.7194"/>
<ellipse fill="none" stroke="#c6cd7e" cx="376.315" cy="-72.9425" rx="4.00002" ry="4.00002"/>
<polygon fill="#c6cd7e" stroke="#c6cd7e" points="415.175,-40.5585 425.738,-37.6136 419.016,-37.3576 422.858,-34.1566 422.858,-34.1566 422.858,-34.1566 419.016,-37.3576 419.977,-30.6996 415.175,-40.5585 415.175,-40.5585"/>
</g>
<!-- Comment -->
<g id="node13" class="node"><title>Comment</title>
<ellipse fill="none" stroke="black" cx="337.046" cy="-18" rx="46.2923" ry="18"/>
<text text-anchor="middle" x="337.046" y="-14.3" font-family="Times,serif" font-size="14.00">Comment</text>
</g>
<!-- Post&#45;&gt;Comment -->
<g id="edge12" class="edge"><title>Post&#45;&gt;Comment</title>
<path fill="none" stroke="#98cfb2" d="M349.979,-64.2675C348.286,-58.34 346.469,-51.9814 344.748,-45.9587"/>
<ellipse fill="none" stroke="#98cfb2" cx="351.105" cy="-68.2089" rx="4.00001" ry="4.00001"/>
<polygon fill="#98cfb2" stroke="#98cfb2" points="344.729,-45.8905 346.308,-35.039 343.355,-41.0829 341.981,-36.2753 341.981,-36.2753 341.981,-36.2753 343.355,-41.0829 337.654,-37.5116 344.729,-45.8905 344.729,-45.8905"/>
</g>
<!-- Gallery&#45;&gt;Image -->
<g id="edge13" class="edge"><title>Gallery&#45;&gt;Image</title>
<path fill="none" stroke="#5bf1a9" d="M508.716,-283.107C501.231,-275.046 492.738,-265.9 485.183,-257.763"/>
<ellipse fill="none" stroke="#5bf1a9" cx="511.574" cy="-286.185" rx="4.00002" ry="4.00002"/>
<polygon fill="#5bf1a9" stroke="#5bf1a9" points="485.095,-257.668 481.588,-247.278 481.692,-254.004 478.29,-250.34 478.29,-250.34 478.29,-250.34 481.692,-254.004 474.992,-253.402 485.095,-257.668 485.095,-257.668"/>
</g>
</g>
</svg>
